<svg xmlns="http://www.w3.org/2000/svg" viewBox="0 0 24 24">
  <path fill="#096dca" d="M20.94 9.92 8.39 17.66a.8.8 0 0 1-.9-.05 23.93 23.93 0 0 1-2.98-2.63s-.61-.63-.88-1.03A3.16 3.16 0 0 1 3 12.01c0-.77.23-1.5.68-2.09.1-.1.49-.56.85-.94 2.15-2.34 7.74-6.2 10.68-7.38a8.23 8.23 0 0 1 2.16-.6c.57 0 1.12.12 1.65.4.66.37 1.17.96 1.45 1.65.19.48.47 1.92.47 1.96.19 1.03.32 2.47.4 4.16 0 .3-.15.6-.4.75Z"/>
  <path fill="#9dc5ea" d="M20.1 14.09c.56-.34 1.25.1 1.23.75a43.7 43.7 0 0 1-.33 3.92c-.02.02-.3 1.82-.63 2.42a3.26 3.26 0 0 1-2.9 1.82h-.1a8.25 8.25 0 0 1-2.43-.75 25.5 25.5 0 0 1-3.09-1.64.84.84 0 0 1-.01-1.43l8.26-5.1Z"/>
</svg>
