<svg xmlns="http://www.w3.org/2000/svg" fill="none" viewBox="0 0 658 756">
  <circle cx="14.21" cy="14.21" r="14.21" fill="#fff" transform="matrix(-1 0 0 1 56.46 323.85)"/>
  <circle cx="14.21" cy="14.21" r="14.21" fill="#0934CA" fill-opacity=".2" transform="matrix(-1 0 0 1 56.46 323.85)"/>
  <path fill="#fff" d="M573.66 354.36h9.86v-9.86a6.44 6.44 0 0 1 12.89 0v9.86h9.85a6.44 6.44 0 0 1 0 12.89h-9.85v9.85a6.44 6.44 0 1 1-12.9 0v-9.85h-9.85a6.44 6.44 0 1 1 0-12.9Z"/>
  <path fill="#096DCA" fill-opacity=".2" d="M573.66 354.36h9.86v-9.86a6.44 6.44 0 0 1 12.89 0v9.86h9.85a6.44 6.44 0 0 1 0 12.89h-9.85v9.85a6.44 6.44 0 1 1-12.9 0v-9.85h-9.85a6.44 6.44 0 1 1 0-12.9Z"/>
  <path fill="#fff" d="M129.32 225.19c0-1.15.7-2.18 1.77-2.6a34.56 34.56 0 0 0 20.11-20.1 2.78 2.78 0 0 1 5.2 0 34.56 34.56 0 0 0 20.1 20.1 2.78 2.78 0 0 1 0 5.2 34.56 34.56 0 0 0-20.1 20.1 2.78 2.78 0 0 1-5.2 0 34.56 34.56 0 0 0-20.1-20.1 2.78 2.78 0 0 1-1.78-2.6Z"/>
  <path fill="#DBAB30" fill-opacity=".2" d="M129.32 225.19c0-1.15.7-2.18 1.77-2.6a34.56 34.56 0 0 0 20.11-20.1 2.78 2.78 0 0 1 5.2 0 34.56 34.56 0 0 0 20.1 20.1 2.78 2.78 0 0 1 0 5.2 34.56 34.56 0 0 0-20.1 20.1 2.78 2.78 0 0 1-5.2 0 34.56 34.56 0 0 0-20.1-20.1 2.78 2.78 0 0 1-1.78-2.6Z"/>
  <path fill="#fff" d="M589.96 436.16c0-1.15.7-2.18 1.77-2.6a34.56 34.56 0 0 0 20.11-20.1 2.78 2.78 0 0 1 5.2 0 34.57 34.57 0 0 0 20.1 20.1 2.78 2.78 0 0 1 0 5.2 34.56 34.56 0 0 0-20.1 20.11 2.78 2.78 0 0 1-2.6 1.77c-1.15 0-2.18-.7-2.6-1.77a34.56 34.56 0 0 0-20.1-20.1 2.78 2.78 0 0 1-1.78-2.6Z"/>
  <path fill="#CAC209" fill-opacity=".05" d="M589.96 436.16c0-1.15.7-2.18 1.77-2.6a34.56 34.56 0 0 0 20.11-20.1 2.78 2.78 0 0 1 5.2 0 34.57 34.57 0 0 0 20.1 20.1 2.78 2.78 0 0 1 0 5.2 34.56 34.56 0 0 0-20.1 20.11 2.78 2.78 0 0 1-2.6 1.77c-1.15 0-2.18-.7-2.6-1.77a34.56 34.56 0 0 0-20.1-20.1 2.78 2.78 0 0 1-1.78-2.6Z"/>
  <path stroke="#8C09CA" stroke-dasharray="14.64 14.64" stroke-opacity=".3" stroke-width="2.44" d="M544.39 226.87c-120.2 119.8-402.21 84.46-379.43 43.37 4.23-7.63 22.34-10.59 48.73-9.79m144.52 129.4c15.7-50.14-88.03-81.53-104.48-41.09-41.64 98.91 274.16 127.89 311.87 59.9 14.48-26.1-15.6-53.1-64.88-76.8"/>
  <path fill="#fff" d="M607.95 270.98c-2.65-.43-10.64-1.55-14.3-2.06-.96-.23-3.07-1.09-3.85-2.59-.99-1.88-5-11.17-6.44-13.68-1.43-2.5-5.1-3.57-7.06 0a384.67 384.67 0 0 0-7.25 14.13c-.71 1.6-2.23 2.15-3.66 2.15-1.43 0-11 1.51-14.22 2.05a3.65 3.65 0 0 0-2.14 6.08c1.79 1.88 9.92 9.48 10.82 10.46.89.99 1.6 2.33 1.16 4.74a410.5 410.5 0 0 0-2.5 15.11c-.45 3.58 3.21 4.56 5.63 3.3 2.41-1.24 10.73-5.44 12.87-6.25 2.15-.8 3.49-.9 5.37 0 1.87.9 9.03 5.19 12.6 6.8 3.58 1.6 6.08-1.8 5.37-5.28-.72-3.49-2.24-11.62-2.42-13.68-.17-2.06.1-2.68 1.08-3.84.98-1.17 9.83-9.57 11.71-11.36 1.88-1.79.54-5.54-2.77-6.08Z"/>
  <path stroke="#fff" stroke-width="2.44" d="M607.95 270.98c-2.65-.43-10.64-1.55-14.3-2.06-.96-.23-3.07-1.09-3.85-2.59-.99-1.88-5-11.17-6.44-13.68-1.43-2.5-5.1-3.57-7.06 0a384.67 384.67 0 0 0-7.25 14.13c-.71 1.6-2.23 2.15-3.66 2.15-1.43 0-11 1.51-14.22 2.05a3.65 3.65 0 0 0-2.14 6.08c1.79 1.88 9.92 9.48 10.82 10.46.89.99 1.6 2.33 1.16 4.74a410.5 410.5 0 0 0-2.5 15.11c-.45 3.58 3.21 4.56 5.63 3.3 2.41-1.24 10.73-5.44 12.87-6.25 2.15-.8 3.49-.9 5.37 0 1.87.9 9.03 5.19 12.6 6.8 3.58 1.6 6.08-1.8 5.37-5.28-.72-3.49-2.24-11.62-2.42-13.68-.17-2.06.1-2.68 1.08-3.84.98-1.17 9.83-9.57 11.71-11.36 1.88-1.79.54-5.54-2.77-6.08Z"/>
  <path stroke="#ECDEAB" stroke-opacity=".8" stroke-width="2.44" d="M607.95 270.98c-2.65-.43-10.64-1.55-14.3-2.06-.96-.23-3.07-1.09-3.85-2.59-.99-1.88-5-11.17-6.44-13.68-1.43-2.5-5.1-3.57-7.06 0a384.67 384.67 0 0 0-7.25 14.13c-.71 1.6-2.23 2.15-3.66 2.15-1.43 0-11 1.51-14.22 2.05a3.65 3.65 0 0 0-2.14 6.08c1.79 1.88 9.92 9.48 10.82 10.46.89.99 1.6 2.33 1.16 4.74a410.5 410.5 0 0 0-2.5 15.11c-.45 3.58 3.21 4.56 5.63 3.3 2.41-1.24 10.73-5.44 12.87-6.25 2.15-.8 3.49-.9 5.37 0 1.87.9 9.03 5.19 12.6 6.8 3.58 1.6 6.08-1.8 5.37-5.28-.72-3.49-2.24-11.62-2.42-13.68-.17-2.06.1-2.68 1.08-3.84.98-1.17 9.83-9.57 11.71-11.36 1.88-1.79.54-5.54-2.77-6.08Z"/>
  <path fill="#fff" stroke="#12518C" stroke-linecap="round" stroke-width="2.44" d="m100.87 458.84-33.34-13.19c-2.16 2-7.17 7.07-9.96 11.45-2.79 4.38-5.14 11.78-5.97 14.93l37.82 12.2 11.45-25.39Z"/>
  <path fill="#fff" d="M245.3 325.29c-37.53-22.6-46.73-20.53-102.28-58.56-21.77-14.9-58.14-48.42-72.85-51.05-14.71-2.63.08 15.41 18.7 28.63 18.63 13.22 26.26 19.27 34.28 33.15 8.02 13.87 29.84 26.56 63.02 47.16 22.16 13.75 40.6 16.32 66.18 30.9 25.6 14.56 37.72 26.6 49.19 26.22 20.25-.67-14.8-31.5-56.24-56.45Z"/>
  <path stroke="#fff" stroke-width="1.22" d="M245.3 325.29c-37.53-22.6-46.73-20.53-102.28-58.56-21.77-14.9-58.14-48.42-72.85-51.05-14.71-2.63.08 15.41 18.7 28.63 18.63 13.22 26.26 19.27 34.28 33.15 8.02 13.87 29.84 26.56 63.02 47.16 22.16 13.75 40.6 16.32 66.18 30.9 25.6 14.56 37.72 26.6 49.19 26.22 20.25-.67-14.8-31.5-56.24-56.45Z"/>
  <path stroke="#09CAA7" stroke-opacity=".1" stroke-width="1.22" d="M245.3 325.29c-37.53-22.6-46.73-20.53-102.28-58.56-21.77-14.9-58.14-48.42-72.85-51.05-14.71-2.63.08 15.41 18.7 28.63 18.63 13.22 26.26 19.27 34.28 33.15 8.02 13.87 29.84 26.56 63.02 47.16 22.16 13.75 40.6 16.32 66.18 30.9 25.6 14.56 37.72 26.6 49.19 26.22 20.25-.67-14.8-31.5-56.24-56.45Z"/>
  <path fill="#fff" d="M253.33 344.23c-35.3-18.26-38.3-12.45-89.05-43.33-27.91-16.98-67.05-70.17-94.78-80.83-12.95-4.99 24.15 25 39.73 37.23 14.4 11.3 14.33 20.72 25.47 30.64 13.54 12.06 35.22 26.7 66.48 43.26 20.86 11.06 23.06 8.31 47.06 20.2 24 11.89 37.16 26.7 47.34 27.38 10.2.67-3.28-14.39-42.25-34.55Z"/>
  <path fill="#099CCA" fill-opacity=".05" d="M253.33 344.23c-35.3-18.26-38.3-12.45-89.05-43.33-27.91-16.98-67.05-70.17-94.78-80.83-12.95-4.99 24.15 25 39.73 37.23 14.4 11.3 14.33 20.72 25.47 30.64 13.54 12.06 35.22 26.7 66.48 43.26 20.86 11.06 23.06 8.31 47.06 20.2 24 11.89 37.16 26.7 47.34 27.38 10.2.67-3.28-14.39-42.25-34.55Z"/>
  <path stroke="#fff" stroke-width="1.22" d="M253.33 344.23c-35.3-18.26-38.3-12.45-89.05-43.33-27.91-16.98-67.05-70.17-94.78-80.83-12.95-4.99 24.15 25 39.73 37.23 14.4 11.3 14.33 20.72 25.47 30.64 13.54 12.06 35.22 26.7 66.48 43.26 20.86 11.06 23.06 8.31 47.06 20.2 24 11.89 37.16 26.7 47.34 27.38 10.2.67-3.28-14.39-42.25-34.55Z"/>
  <path stroke="#09A7CA" stroke-opacity=".1" stroke-width="1.22" d="M253.33 344.23c-35.3-18.26-38.3-12.45-89.05-43.33-27.91-16.98-67.05-70.17-94.78-80.83-12.95-4.99 24.15 25 39.73 37.23 14.4 11.3 14.33 20.72 25.47 30.64 13.54 12.06 35.22 26.7 66.48 43.26 20.86 11.06 23.06 8.31 47.06 20.2 24 11.89 37.16 26.7 47.34 27.38 10.2.67-3.28-14.39-42.25-34.55Z"/>
  <path fill="#fff" d="M206.16 353.15c18.11 11.29 19.25 15.73 48.06 31.42 11.29 6.14 33.9 14.5 38.3 20.3 4.39 5.8-6.72 3.38-16.58-1.77s-14.18-7.13-21.97-7.53c-7.8-.41-18.14-7.07-34.43-16.9-10.87-6.58-16.07-14-28.06-21.89-12-7.88-19.9-10.47-22.28-15.53-4.2-8.94 16.95-.56 36.96 11.9Z"/>
  <path stroke="#fff" stroke-width="1.22" d="M206.16 353.15c18.11 11.29 19.25 15.73 48.06 31.42 11.29 6.14 33.9 14.5 38.3 20.3 4.39 5.8-6.72 3.38-16.58-1.77s-14.18-7.13-21.97-7.53c-7.8-.41-18.14-7.07-34.43-16.9-10.87-6.58-16.07-14-28.06-21.89-12-7.88-19.9-10.47-22.28-15.53-4.2-8.94 16.95-.56 36.96 11.9Z"/>
  <path stroke="#096DCA" stroke-opacity=".1" stroke-width="1.22" d="M206.16 353.15c18.11 11.29 19.25 15.73 48.06 31.42 11.29 6.14 33.9 14.5 38.3 20.3 4.39 5.8-6.72 3.38-16.58-1.77s-14.18-7.13-21.97-7.53c-7.8-.41-18.14-7.07-34.43-16.9-10.87-6.58-16.07-14-28.06-21.89-12-7.88-19.9-10.47-22.28-15.53-4.2-8.94 16.95-.56 36.96 11.9Z"/>
  <path fill="#fff" d="M196.16 353.86c15.74 11.28 13.88 13.87 38.52 29.05 13.56 8.35 45.3 13.56 56.08 23.23 5.03 4.52-16.2-4.94-24.96-9-8.1-3.74-12.17-1.63-18.94-4.26-8.23-3.2-19.39-9.38-33.5-19.27-9.41-6.6-8.71-8.17-19.18-15.95-10.47-7.78-19.82-10.21-22.37-14.48-2.55-4.28 6.97-1.76 24.35 10.68Z"/>
  <path fill="#096DCA" fill-opacity=".05" d="M196.16 353.86c15.74 11.28 13.88 13.87 38.52 29.05 13.56 8.35 45.3 13.56 56.08 23.23 5.03 4.52-16.2-4.94-24.96-9-8.1-3.74-12.17-1.63-18.94-4.26-8.23-3.2-19.39-9.38-33.5-19.27-9.41-6.6-8.71-8.17-19.18-15.95-10.47-7.78-19.82-10.21-22.37-14.48-2.55-4.28 6.97-1.76 24.35 10.68Z"/>
  <path stroke="#fff" stroke-width="1.22" d="M196.16 353.86c15.74 11.28 13.88 13.87 38.52 29.05 13.56 8.35 45.3 13.56 56.08 23.23 5.03 4.52-16.2-4.94-24.96-9-8.1-3.74-12.17-1.63-18.94-4.26-8.23-3.2-19.39-9.38-33.5-19.27-9.41-6.6-8.71-8.17-19.18-15.95-10.47-7.78-19.82-10.21-22.37-14.48-2.55-4.28 6.97-1.76 24.35 10.68Z"/>
  <path stroke="#096DCA" stroke-opacity=".1" stroke-width="1.22" d="M196.16 353.86c15.74 11.28 13.88 13.87 38.52 29.05 13.56 8.35 45.3 13.56 56.08 23.23 5.03 4.52-16.2-4.94-24.96-9-8.1-3.74-12.17-1.63-18.94-4.26-8.23-3.2-19.39-9.38-33.5-19.27-9.41-6.6-8.71-8.17-19.18-15.95-10.47-7.78-19.82-10.21-22.37-14.48-2.55-4.28 6.97-1.76 24.35 10.68Z"/>
  <path fill="#fff" stroke="#12518C" stroke-linecap="round" stroke-width="2.44" d="m603.56 535.64-21.93-15.63-21.06 21.06 30.4 16.72 12.6-22.14Z"/>
  <path fill="#fff" d="M208.36 545.75 325.1 445.47l-82.62-30.19-61.9 71.45-96.03-36.74c-2.32 3.09-7.81 11-11.28 17.94-3.48 6.94-6.73 20.8-7.92 26.86 30.14 16.99 94.2 52.28 109.32 57.54 15.13 5.26 28.77-2.2 33.7-6.58Z"/>
  <path fill="#1B8AAD" fill-opacity=".2" d="M208.36 545.75 325.1 445.47l-82.62-30.19-61.9 71.45-96.03-36.74c-2.32 3.09-7.81 11-11.28 17.94-3.48 6.94-6.73 20.8-7.92 26.86 30.14 16.99 94.2 52.28 109.32 57.54 15.13 5.26 28.77-2.2 33.7-6.58Z"/>
  <path stroke="#12518C" stroke-linecap="round" stroke-width="2.44" d="M208.36 545.75 325.1 445.47l-82.62-30.19-61.9 71.45-96.03-36.74c-2.32 3.09-7.81 11-11.28 17.94-3.48 6.94-6.73 20.8-7.92 26.86 30.14 16.99 94.2 52.28 109.32 57.54 15.13 5.26 28.77-2.2 33.7-6.58Z"/>
  <g style="mix-blend-mode:multiply">
    <path fill="#fff" d="M252.15 466.36c-4.76-1.59-16.32-10.69-24.52-34.4l10.62-10.98c2.2 3.66 9.22 12.88 19.75 20.5 10.54 7.6 39.77 13.4 53.06 15.36l-29.63 24.88-29.28-15.37Z"/>
    <path fill="#15806D" fill-opacity=".2" d="M252.15 466.36c-4.76-1.59-16.32-10.69-24.52-34.4l10.62-10.98c2.2 3.66 9.22 12.88 19.75 20.5 10.54 7.6 39.77 13.4 53.06 15.36l-29.63 24.88-29.28-15.37Z"/>
  </g>
  <path fill="#fff" d="m238.06 396.33 13.25-37L354.6 372.6c29.27 9.75 91.35 31.15 105.49 38.66 14.14 7.5 90.57 76.4 127.03 109.9l-26.51 36.46-140.84-91.68c-37.2-2.77-119.74-9.73-152.44-15.47s-33.14-38.48-29.27-54.13Z"/>
  <path fill="#6EA8C1" fill-opacity=".15" d="m238.06 396.33 13.25-37L354.6 372.6c29.27 9.75 91.35 31.15 105.49 38.66 14.14 7.5 90.57 76.4 127.03 109.9l-26.51 36.46-140.84-91.68c-37.2-2.77-119.74-9.73-152.44-15.47s-33.14-38.48-29.27-54.13Z"/>
  <path stroke="#12518C" stroke-linecap="round" stroke-width="2.44" d="m238.06 396.33 13.25-37L354.6 372.6c29.27 9.75 91.35 31.15 105.49 38.66 14.14 7.5 90.57 76.4 127.03 109.9l-26.51 36.46-140.84-91.68c-37.2-2.77-119.74-9.73-152.44-15.47s-33.14-38.48-29.27-54.13Z"/>
  <path fill="#fff" d="m235 289.7 24.7 2.84 9.28-44.03c-9.27-.6-30.38-1.8-40.68-1.8s-17.33 10.13-19.56 15.19l-23.95 87.01c-4.46 5.58-13.49 18.18-13.9 23.94-.4 5.77 3.6 7.21 5.67 7.21.6 1.38 2.62 4.38 5.92 5.4a8.07 8.07 0 0 0 7.2-1.28c.86.94 3.87 2.94 9.01 3.35 6.44.51.52-7.21 6.96-7.47 6.43-.25 6.69-5.92 7.98-10.55 1.03-3.7-2.75-10.99-4.9-13.13L235 289.7Z"/>
  <path stroke="#12518C" stroke-linecap="round" stroke-width="2.44" d="m235 289.7 24.7 2.84 9.28-44.03c-9.27-.6-30.38-1.8-40.68-1.8s-17.33 10.13-19.56 15.19l-23.95 87.01c-4.46 5.58-13.49 18.18-13.9 23.94-.4 5.77 3.6 7.21 5.67 7.21.6 1.38 2.62 4.38 5.92 5.4a8.07 8.07 0 0 0 7.2-1.28c.86.94 3.87 2.94 9.01 3.35 6.44.51.52-7.21 6.96-7.47 6.43-.25 6.69-5.92 7.98-10.55 1.03-3.7-2.75-10.99-4.9-13.13L235 289.7Z"/>
  <path stroke="#E30000" stroke-linecap="round" stroke-opacity=".2" stroke-width="2.44" d="m235 289.7 24.7 2.84 9.28-44.03c-9.27-.6-30.38-1.8-40.68-1.8s-17.33 10.13-19.56 15.19l-23.95 87.01c-4.46 5.58-13.49 18.18-13.9 23.94-.4 5.77 3.6 7.21 5.67 7.21.6 1.38 2.62 4.38 5.92 5.4a8.07 8.07 0 0 0 7.2-1.28c.86.94 3.87 2.94 9.01 3.35 6.44.51.52-7.21 6.96-7.47 6.43-.25 6.69-5.92 7.98-10.55 1.03-3.7-2.75-10.99-4.9-13.13L235 289.7Z"/>
  <path fill="#fff" stroke="#12518C" stroke-linejoin="round" stroke-width="2.44" d="m473.12 333.04-20.4-9.47-13.52-5.02-12.9 33.88c13.08 2.83 40.46 9.04 45.29 11.3 6.04 2.83 17.83.87 22.5-9.61 3.73-8.38 15.57-42.8 22.22-58.92.8-1.94 3.84-3.77 6.57-5.86 5.24-4 6.93-6.55 7.9-10.22l11.02-8.7c4.09-2.75 2.43-7.83-1.87-6.22-4.26 1.6-11.47 6.22-11.47 6.22s6.4-11.94 9.7-16.2c4.13-5.32-2.3-8.06-5.4-4.52 0 0-14.21 19.03-12.98 15.14a457.2 457.2 0 0 0 5.8-19.95c2.13-8.27-6.1-5.73-7.18-2.01-.87 2.96-7.87 21.32-7.87 21.32s.68-9.17.52-15.76c-.17-6.6-5.2-5.56-6.06.71l-3.25 17.9c.06-.92-4.23-6.39-7.9-8.09-4.8-2.22-7.13 1.3-8 2.93 1.47 1.7 7.3 8.71 8 13.6.7 4.87 3.95 10.56 4.88 11.45l-25.6 46.1Z"/>
  <path fill="#fff" d="m449.25 321.72-58.17-30.33c-8.46-9.44-26.56-29.33-31.33-33.31-5.96-4.97-14.42-9.94-26.85-9.94h-76.07c-2.32 3.97-6.86 16.1-6.47 32.81.4 16.7 7.46 22.87 10.94 23.87h27.85l-44.75 46.24c4.14 5.8 18.9 19.3 44.75 26.85 25.85 7.56 48.23 6.8 56.18 5.47l24.37-21.88 56.18 4.48c26 6.32 27.64-29.3 23.37-44.26Z"/>
  <path fill="#1796BE" fill-opacity=".6" d="m449.25 321.72-58.17-30.33c-8.46-9.44-26.56-29.33-31.33-33.31-5.96-4.97-14.42-9.94-26.85-9.94h-76.07c-2.32 3.97-6.86 16.1-6.47 32.81.4 16.7 7.46 22.87 10.94 23.87h27.85l-44.75 46.24c4.14 5.8 18.9 19.3 44.75 26.85 25.85 7.56 48.23 6.8 56.18 5.47l24.37-21.88 56.18 4.48c26 6.32 27.64-29.3 23.37-44.26Z"/>
  <path stroke="#0F82A6" stroke-linecap="round" stroke-width="2.44" d="m449.25 321.72-58.17-30.33c-8.46-9.44-26.56-29.33-31.33-33.31-5.96-4.97-14.42-9.94-26.85-9.94h-76.07c-2.32 3.97-6.86 16.1-6.47 32.81.4 16.7 7.46 22.87 10.94 23.87h27.85l-44.75 46.24c4.14 5.8 18.9 19.3 44.75 26.85 25.85 7.56 48.23 6.8 56.18 5.47l24.37-21.88 56.18 4.48c26 6.32 27.64-29.3 23.37-44.26Z"/>
  <path fill="#fff" d="M392.58 182.9v-5.1c4.68-2.18 9.5 1.34 16.6 5.1 1.24-.7 1.1-2.4 0-3.66 10.45 0 24.64 22.66 2.41 40.6-25.9 30.93-38.33 41.57-38.33 41.57s-7.02-7.42-8.95-13.18c-1.93-5.75-12.44-30.02-12.44-30.02-8.3-17.99 27.3-36.36 40.71-35.32Z"/>
  <path fill="#12518C" fill-opacity=".4" d="M392.58 182.9v-5.1c4.68-2.18 9.5 1.34 16.6 5.1 1.24-.7 1.1-2.4 0-3.66 10.45 0 24.64 22.66 2.41 40.6-25.9 30.93-38.33 41.57-38.33 41.57s-7.02-7.42-8.95-13.18c-1.93-5.75-12.44-30.02-12.44-30.02-8.3-17.99 27.3-36.36 40.71-35.32Z"/>
  <path fill="#E78484" fill-opacity=".3" d="M392.58 182.9v-5.1c4.68-2.18 9.5 1.34 16.6 5.1 1.24-.7 1.1-2.4 0-3.66 10.45 0 24.64 22.66 2.41 40.6-25.9 30.93-38.33 41.57-38.33 41.57s-7.02-7.42-8.95-13.18c-1.93-5.75-12.44-30.02-12.44-30.02-8.3-17.99 27.3-36.36 40.71-35.32Z"/>
  <path stroke="#12518C" stroke-linecap="round" stroke-linejoin="round" stroke-width="2.05" d="M392.58 182.9v-5.1c4.68-2.18 9.5 1.34 16.6 5.1 1.24-.7 1.1-2.4 0-3.66 10.45 0 24.64 22.66 2.41 40.6-25.9 30.93-38.33 41.57-38.33 41.57s-7.02-7.42-8.95-13.18c-1.93-5.75-12.44-30.02-12.44-30.02-8.3-17.99 27.3-36.36 40.71-35.32Z"/>
  <path stroke="red" stroke-linecap="round" stroke-linejoin="round" stroke-opacity=".3" stroke-width="2.05" d="M392.58 182.9v-5.1c4.68-2.18 9.5 1.34 16.6 5.1 1.24-.7 1.1-2.4 0-3.66 10.45 0 24.64 22.66 2.41 40.6-25.9 30.93-38.33 41.57-38.33 41.57s-7.02-7.42-8.95-13.18c-1.93-5.75-12.44-30.02-12.44-30.02-8.3-17.99 27.3-36.36 40.71-35.32Z"/>
  <path fill="#fff" d="M390.4 294.07c1.9-3.99 8.8-19.99 8.95-26.06 3.12-6.62-28.7-32.72-24.03-17.34 0 14.22-8.9 11.22-13.76 12.59-1.31 4.75-6.22 39.1 11.62 41.92 11.02 1.75 14.87-6.14 17.22-11.1Z"/>
  <path stroke="#12518C" stroke-linecap="round" stroke-linejoin="round" stroke-width="2.05" d="M390.4 294.07c1.9-3.99 8.8-19.99 8.95-26.06 3.12-6.62-28.7-32.72-24.03-17.34 0 14.22-8.9 11.22-13.76 12.59-1.31 4.75-6.22 39.1 11.62 41.92 11.02 1.75 14.87-6.14 17.22-11.1Z"/>
  <path stroke="#E30000" stroke-linecap="round" stroke-linejoin="round" stroke-opacity=".2" stroke-width="2.05" d="M390.4 294.07c1.9-3.99 8.8-19.99 8.95-26.06 3.12-6.62-28.7-32.72-24.03-17.34 0 14.22-8.9 11.22-13.76 12.59-1.31 4.75-6.22 39.1 11.62 41.92 11.02 1.75 14.87-6.14 17.22-11.1Z"/>
  <g style="mix-blend-mode:multiply">
    <path fill="#fff" d="M393.17 282.38c-4.49-2.57-13.77-10.37-15.04-20.97a74.2 74.2 0 0 0 9.5 4.75c3.95 1.58 8.5 3.82 10.29 4.75l-4.75 11.47Z"/>
    <path fill="#CA0909" fill-opacity=".1" d="M393.17 282.38c-4.49-2.57-13.77-10.37-15.04-20.97a74.2 74.2 0 0 0 9.5 4.75c3.95 1.58 8.5 3.82 10.29 4.75l-4.75 11.47Z"/>
  </g>
  <g style="mix-blend-mode:multiply">
    <path fill="#fff" d="M459.69 358.64c1.29-7.1.92-25.64-8.63-35.1 1.18 4.8 1.64 11.91 1.18 17.71-.44 5.37-3.37 12-3.98 14.74l11.43 2.65Z"/>
    <path fill="#CA0909" fill-opacity=".1" d="M459.69 358.64c1.29-7.1.92-25.64-8.63-35.1 1.18 4.8 1.64 11.91 1.18 17.71-.44 5.37-3.37 12-3.98 14.74l11.43 2.65Z"/>
  </g>
  <g style="mix-blend-mode:multiply">
    <path fill="#fff" d="M238 288.74c-.42-7.19 6.23-31.32 16.85-39.55-1.74 4.63-5.13 16.34-5.36 22.16-.22 5.38-.4 14.76.96 18.68L238 288.74Z"/>
    <path fill="#CA0909" fill-opacity=".1" d="M238 288.74c-.42-7.19 6.23-31.32 16.85-39.55-1.74 4.63-5.13 16.34-5.36 22.16-.22 5.38-.4 14.76.96 18.68L238 288.74Z"/>
  </g>
  <g style="mix-blend-mode:multiply">
    <path fill="#fff" d="M578 549.08c3.41-5.04 10.07-15.9 8.56-25.06-3.83 6.03-11.01 15.4-15.47 21.4l6.92 3.66Z"/>
    <path fill="#CA0909" fill-opacity=".1" d="M578 549.08c3.41-5.04 10.07-15.9 8.56-25.06-3.83 6.03-11.01 15.4-15.47 21.4l6.92 3.66Z"/>
  </g>
  <path fill="#fff" d="M374.26 219.12c11.99-1.47 16.18-19.92 36.97-16.47 10.42 10.34 10.83 52.66.14 66.07-4.61 5.78-22.71-1.74-32.3-7.66"/>
  <path stroke="#12518C" stroke-linecap="round" stroke-linejoin="round" stroke-width="2.05" d="M374.26 219.12c11.99-1.47 16.18-19.92 36.97-16.47 10.42 10.34 10.83 52.66.14 66.07-4.61 5.78-22.71-1.74-32.3-7.66"/>
  <path stroke="#E30000" stroke-linecap="round" stroke-linejoin="round" stroke-opacity=".2" stroke-width="2.05" d="M374.26 219.12c11.99-1.47 16.18-19.92 36.97-16.47 10.42 10.34 10.83 52.66.14 66.07-4.61 5.78-22.71-1.74-32.3-7.66"/>
  <path fill="#fff" d="M408.47 230.81c15.1 7.68 10.47 21.6.14 18.8l-.14-18.8Z"/>
  <path stroke="#12518C" stroke-linecap="round" stroke-linejoin="round" stroke-width="2.05" d="M408.47 230.81c15.1 7.68 10.47 21.6.14 18.8"/>
  <ellipse cx="2.31" cy="3.99" fill="#0E0065" rx="2.31" ry="3.99" transform="matrix(-1 0 0 1 395.98 225.19)"/>
  <ellipse cx="2.31" cy="3.99" fill="#0E0065" rx="2.31" ry="3.99" transform="matrix(-1 0 0 1 413.31 225.19)"/>
  <ellipse cx="6.55" cy="6.58" fill="#FEDCEC" rx="6.55" ry="6.58" transform="matrix(-1 0 0 1 404.46 239.47)"/>
  <path stroke="#12518C" stroke-linecap="round" stroke-width="2.44" d="M397.92 249.06c.38 1.93 1.06 7.04 8.3 7.14"/>
  <path fill="#fff" d="M378.63 248.76c-11.38 6.5-17.72-20.77-2.33-17.57 1.93.4 4.56 2.41 4.73 5.43"/>
  <path stroke="#0E0065" stroke-linecap="round" stroke-linejoin="round" stroke-width="1.58" d="M378.63 248.76c-11.38 6.5-17.72-20.77-2.33-17.57 1.93.4 4.56 2.41 4.73 5.43"/>
  <path stroke="#0E0065" stroke-linecap="round" stroke-linejoin="round" stroke-width="1.58" d="M374.11 238.14a2.73 2.73 0 0 0-.28 4.39"/>
  <path fill="#fff" d="M64.3 440.93c2.48 1.5 6.46 1.99 4.47 6.47-2.07 2.07-6.87 7.31-9.46 11.7-2.58 4.37-4.4 10.44-4.97 12.93 0 1.16-.7 3.44-3.49 3.24-3.48-.25-5.47.25-8.7 3.48-3.24 3.24-6.23 15.93-15.43 27.87-9.21 11.95-22.15 11.45-24.64 8.21-2.49-3.23 32.6-67.43 36.33-75.4 3.73-7.96 11.45-7.96 15.93-4.72 4.48 3.23 7.46 4.73 9.95 6.22Z"/>
  <path fill="#1A85A7" fill-opacity=".5" d="M64.3 440.93c2.48 1.5 6.46 1.99 4.47 6.47-2.07 2.07-6.87 7.31-9.46 11.7-2.58 4.37-4.4 10.44-4.97 12.93 0 1.16-.7 3.44-3.49 3.24-3.48-.25-5.47.25-8.7 3.48-3.24 3.24-6.23 15.93-15.43 27.87-9.21 11.95-22.15 11.45-24.64 8.21-2.49-3.23 32.6-67.43 36.33-75.4 3.73-7.96 11.45-7.96 15.93-4.72 4.48 3.23 7.46 4.73 9.95 6.22Z"/>
  <path stroke="#0F82A6" stroke-linecap="round" stroke-width="2.44" d="M64.3 440.93c2.48 1.5 6.46 1.99 4.47 6.47-2.07 2.07-6.87 7.31-9.46 11.7-2.58 4.37-4.4 10.44-4.97 12.93 0 1.16-.7 3.44-3.49 3.24-3.48-.25-5.47.25-8.7 3.48-3.24 3.24-6.23 15.93-15.43 27.87-9.21 11.95-22.15 11.45-24.64 8.21-2.49-3.23 32.6-67.43 36.33-75.4 3.73-7.96 11.45-7.96 15.93-4.72 4.48 3.23 7.46 4.73 9.95 6.22Z"/>
  <path stroke="#12518C" stroke-linecap="round" stroke-width="2.44" d="M51.6 492.19c.5-3.74 1-10.7-2.74-12.7-2.98-1.59-9.04 20.9-11.7 32.36"/>
  <path fill="#fff" d="M586.84 559.97c-1.73-1.3-.21-3.04 1.74-7.39 2.82-5.13 8.86-15.98 10.42-18.24 1.96-2.82 6.52-1.08 11.08 0 4.56 1.09 5.86-7.38 19.1-19.54 13.25-12.16 21.29-6.08 23.89-4.56 2.6 1.52 4.78 3.48 0 9.77-4.78 6.3-39.08 50.81-46.25 52.12-7.17 1.3-8.69-5.87-10.86-7.17-2.17-1.3-7.38-3.7-9.12-5Z"/>
  <path fill="#1A85A7" fill-opacity=".5" d="M586.84 559.97c-1.73-1.3-.21-3.04 1.74-7.39 2.82-5.13 8.86-15.98 10.42-18.24 1.96-2.82 6.52-1.08 11.08 0 4.56 1.09 5.86-7.38 19.1-19.54 13.25-12.16 21.29-6.08 23.89-4.56 2.6 1.52 4.78 3.48 0 9.77-4.78 6.3-39.08 50.81-46.25 52.12-7.17 1.3-8.69-5.87-10.86-7.17-2.17-1.3-7.38-3.7-9.12-5Z"/>
  <path stroke="#0F82A6" stroke-linecap="round" stroke-width="2.44" d="M586.84 559.97c-1.73-1.3-.21-3.04 1.74-7.39 2.82-5.13 8.86-15.98 10.42-18.24 1.96-2.82 6.52-1.08 11.08 0 4.56 1.09 5.86-7.38 19.1-19.54 13.25-12.16 21.29-6.08 23.89-4.56 2.6 1.52 4.78 3.48 0 9.77-4.78 6.3-39.08 50.81-46.25 52.12-7.17 1.3-8.69-5.87-10.86-7.17-2.17-1.3-7.38-3.7-9.12-5Z"/>
  <path stroke="#12518C" stroke-linecap="round" stroke-linejoin="round" stroke-width="2.44" d="M613.17 527.56c4.09-16.94-3.8-15.77-5.26-10.51a21.9 21.9 0 0 0 0 10.5c-1.16-3.5-5.31-10.97-12.55-12.84"/>
  <path stroke="#12518C" stroke-linecap="round" stroke-width="1.83" d="M393.61 293.1c-1.76 8.64-10.94 19.61-19.4 18.28-22.98-3.6-19.8-31.5-16.24-48.55m50.7 64.8c-8.77 4.32-32.35 26.75-43.04 37.43m-50.39-58.56c-6.04-2.06-28.13-2.38-38.43-2.28m163.46 13.98c3.68 11.02 1.53 34.28-7.65 41.63m-161.87-55.89c-9.21-11.23-9.79-18.72-9.79-25.91 0-5.76 2.5-16.8 3.75-21.6"/>
  <g style="mix-blend-mode:multiply">
    <path fill="#fff" d="m362.93 352.7 5.27-14.72a1.22 1.22 0 0 0-1.56-1.56l-21 7.52a1.22 1.22 0 0 0-.1 2.26l15.73 7.19c.65.3 1.42-.03 1.66-.7Z"/>
    <path fill="#CA0909" fill-opacity=".1" d="m362.93 352.7 5.27-14.72a1.22 1.22 0 0 0-1.56-1.56l-21 7.52a1.22 1.22 0 0 0-.1 2.26l15.73 7.19c.65.3 1.42-.03 1.66-.7Z"/>
    <path stroke="#fff" stroke-linecap="round" stroke-width="1.83" d="m362.93 352.7 5.27-14.72a1.22 1.22 0 0 0-1.56-1.56l-21 7.52a1.22 1.22 0 0 0-.1 2.26l15.73 7.19c.65.3 1.42-.03 1.66-.7Z"/>
    <path stroke="#8C1212" stroke-linecap="round" stroke-opacity=".2" stroke-width="1.83" d="m362.93 352.7 5.27-14.72a1.22 1.22 0 0 0-1.56-1.56l-21 7.52a1.22 1.22 0 0 0-.1 2.26l15.73 7.19c.65.3 1.42-.03 1.66-.7Z"/>
  </g>
  <g style="mix-blend-mode:multiply">
    <path fill="#fff" d="M354.23 315.02c-1.65-.86-4.17-.6-6.84.82a16.85 16.85 0 0 0-6.81 6.97c-1.05 2.02-2.08 4.5-2.2 6.69a5.2 5.2 0 0 0 .51 2.83 4.48 4.48 0 0 0 2.37 1.97c1.77.73 4.43.23 7.2-1.36a18.56 18.56 0 0 0 6.87-6.9l.8.44-.8-.44c1.35-2.49 1.93-4.84 1.74-6.75a5.11 5.11 0 0 0-2.84-4.27Zm.43-.81Z"/>
    <path fill="#8C1212" fill-opacity=".1" d="M354.23 315.02c-1.65-.86-4.17-.6-6.84.82a16.85 16.85 0 0 0-6.81 6.97c-1.05 2.02-2.08 4.5-2.2 6.69a5.2 5.2 0 0 0 .51 2.83 4.48 4.48 0 0 0 2.37 1.97c1.77.73 4.43.23 7.2-1.36a18.56 18.56 0 0 0 6.87-6.9l.8.44-.8-.44c1.35-2.49 1.93-4.84 1.74-6.75a5.11 5.11 0 0 0-2.84-4.27Zm.43-.81Z"/>
    <path stroke="#fff" stroke-width="1.83" d="M354.23 315.02c-1.65-.86-4.17-.6-6.84.82a16.85 16.85 0 0 0-6.81 6.97c-1.05 2.02-2.08 4.5-2.2 6.69a5.2 5.2 0 0 0 .51 2.83 4.48 4.48 0 0 0 2.37 1.97c1.77.73 4.43.23 7.2-1.36a18.56 18.56 0 0 0 6.87-6.9l.8.44-.8-.44c1.35-2.49 1.93-4.84 1.74-6.75a5.11 5.11 0 0 0-2.84-4.27Zm.43-.81Z"/>
    <path stroke="#801515" stroke-opacity=".2" stroke-width="1.83" d="M354.23 315.02c-1.65-.86-4.17-.6-6.84.82a16.85 16.85 0 0 0-6.81 6.97c-1.05 2.02-2.08 4.5-2.2 6.69a5.2 5.2 0 0 0 .51 2.83 4.48 4.48 0 0 0 2.37 1.97c1.77.73 4.43.23 7.2-1.36a18.56 18.56 0 0 0 6.87-6.9l.8.44-.8-.44c1.35-2.49 1.93-4.84 1.74-6.75a5.11 5.11 0 0 0-2.84-4.27Zm.43-.81Z"/>
  </g>
  <g style="mix-blend-mode:multiply">
    <path fill="#fff" d="M316.47 330.89c.32 1.02 1.5 2.02 3.35 2.58 1.8.55 4.07.6 6.2-.07a11.5 11.5 0 0 0 4.02-2.01c.5-.45.83-.92.98-1.41.14-.48.14-1.07-.17-1.8-.43-1.03-1.78-2-3.77-2.53a11.87 11.87 0 0 0-6.22.01l-.25-.88.25.88a7.67 7.67 0 0 0-3.79 2.22 3.04 3.04 0 0 0-.6 3Z"/>
    <path fill="#12518C" fill-opacity=".1" d="M316.47 330.89c.32 1.02 1.5 2.02 3.35 2.58 1.8.55 4.07.6 6.2-.07a11.5 11.5 0 0 0 4.02-2.01c.5-.45.83-.92.98-1.41.14-.48.14-1.07-.17-1.8-.43-1.03-1.78-2-3.77-2.53a11.87 11.87 0 0 0-6.22.01l-.25-.88.25.88a7.67 7.67 0 0 0-3.79 2.22 3.04 3.04 0 0 0-.6 3Z"/>
    <path stroke="#fff" stroke-width="1.83" d="M316.47 330.89c.32 1.02 1.5 2.02 3.35 2.58 1.8.55 4.07.6 6.2-.07a11.5 11.5 0 0 0 4.02-2.01c.5-.45.83-.92.98-1.41.14-.48.14-1.07-.17-1.8-.43-1.03-1.78-2-3.77-2.53a11.87 11.87 0 0 0-6.22.01l-.25-.88.25.88a7.67 7.67 0 0 0-3.79 2.22 3.04 3.04 0 0 0-.6 3Z"/>
    <path stroke="#153480" stroke-opacity=".2" stroke-width="1.83" d="M316.47 330.89c.32 1.02 1.5 2.02 3.35 2.58 1.8.55 4.07.6 6.2-.07a11.5 11.5 0 0 0 4.02-2.01c.5-.45.83-.92.98-1.41.14-.48.14-1.07-.17-1.8-.43-1.03-1.78-2-3.77-2.53a11.87 11.87 0 0 0-6.22.01l-.25-.88.25.88a7.67 7.67 0 0 0-3.79 2.22 3.04 3.04 0 0 0-.6 3Z"/>
  </g>
  <g style="mix-blend-mode:multiply">
    <path fill="#fff" d="m340.13 354.22-10.14-14.86a1.23 1.23 0 0 0-1.52-.42l-20.4 9.4a1.22 1.22 0 0 0-.38 1.95l12.37 13.02c.35.36.89.48 1.35.28l18.18-7.56c.71-.3.97-1.17.54-1.81Z"/>
    <path fill="#6C128C" fill-opacity=".1" d="m340.13 354.22-10.14-14.86a1.23 1.23 0 0 0-1.52-.42l-20.4 9.4a1.22 1.22 0 0 0-.38 1.95l12.37 13.02c.35.36.89.48 1.35.28l18.18-7.56c.71-.3.97-1.17.54-1.81Z"/>
    <path stroke="#fff" stroke-linecap="round" stroke-width="1.83" d="m340.13 354.22-10.14-14.86a1.23 1.23 0 0 0-1.52-.42l-20.4 9.4a1.22 1.22 0 0 0-.38 1.95l12.37 13.02c.35.36.89.48 1.35.28l18.18-7.56c.71-.3.97-1.17.54-1.81Z"/>
    <path stroke="#8A128C" stroke-linecap="round" stroke-opacity=".2" stroke-width="1.83" d="m340.13 354.22-10.14-14.86a1.23 1.23 0 0 0-1.52-.42l-20.4 9.4a1.22 1.22 0 0 0-.38 1.95l12.37 13.02c.35.36.89.48 1.35.28l18.18-7.56c.71-.3.97-1.17.54-1.81Z"/>
  </g>
  <path fill="#fff" d="m533.3 576.23-10.35-65.47-53.75-41.34-70.3 41.34L410.29 579l52.37 40.32 70.64-43.08Z"/>
  <path stroke="#fff" stroke-linecap="round" stroke-width="1.83" d="m533.3 576.23-10.35-65.47-53.75-41.34m64.1 106.81-70.65 43.08-52.37-40.32m123.01-2.76-52.72-39.28m-11.37-67.54-70.3 41.35L410.29 579m58.92-109.57 11.37 67.53M410.27 579l70.3-42.04"/>
  <path stroke="#30A7CD" stroke-linecap="round" stroke-opacity=".4" stroke-width="1.83" d="m533.3 576.23-10.35-65.47-53.75-41.34m64.1 106.81-70.65 43.08-52.37-40.32m123.01-2.76-52.72-39.28m-11.37-67.54-70.3 41.35L410.29 579m58.92-109.57 11.37 67.53M410.27 579l70.3-42.04"/>
  <path fill="#fff" d="m533.94 576.07-53.57-39.03-70.42 41.7 52.66 40.88 71.33-43.55Z"/>
  <path fill="#2D88BC" fill-opacity=".5" d="m533.94 576.07-53.57-39.03-70.42 41.7 52.66 40.88 71.33-43.55Z"/>
  <path fill="#fff" d="m533.63 575.89-10.68-64.78-53.06-41 10.34 66.84 53.4 38.94Z"/>
  <path fill="#6FAFE9" fill-opacity=".2" d="m533.63 575.89-10.68-64.78-53.06-41 10.34 66.84 53.4 38.94Z"/>
  <path stroke="#fff" stroke-linecap="round" stroke-width="1.83" d="m533.63 575.89-10.68-64.78-53.06-41 10.34 66.84 53.4 38.94Z"/>
  <path stroke="#57C0E1" stroke-linecap="round" stroke-opacity=".7" stroke-width="1.83" d="m533.63 575.89-10.68-64.78-53.06-41 10.34 66.84 53.4 38.94Z"/>
  <path fill="#fff" d="M320.63 583.17c-48.13-13.68 5.78-18.99-61.86-62.5-26.5-17.04-73.63-64.64-89.1-59.67-15.46 4.98 5.16 34.1 27.99 49.73 22.82 15.63 32.4 23.45 44.91 48.31 12.52 24.87 38.35 36.97 78.06 58.26 26.5 14.2 45.65 6.4 75.84 19.89 30.2 13.5 46.19 31.27 57.44 22.02 19.88-16.34-66.77-57.13-133.28-76.04Z"/>
  <path stroke="#fff" stroke-width="1.22" d="M320.63 583.17c-48.13-13.68 5.78-18.99-61.86-62.5-26.5-17.04-73.63-64.64-89.1-59.67-15.46 4.98 5.16 34.1 27.99 49.73 22.82 15.63 32.4 23.45 44.91 48.31 12.52 24.87 38.35 36.97 78.06 58.26 26.5 14.2 45.65 6.4 75.84 19.89 30.2 13.5 46.19 31.27 57.44 22.02 19.88-16.34-66.77-57.13-133.28-76.04Z"/>
  <path stroke="#0990CA" stroke-opacity=".25" stroke-width="1.22" d="M320.63 583.17c-48.13-13.68 5.78-18.99-61.86-62.5-26.5-17.04-73.63-64.64-89.1-59.67-15.46 4.98 5.16 34.1 27.99 49.73 22.82 15.63 32.4 23.45 44.91 48.31 12.52 24.87 38.35 36.97 78.06 58.26 26.5 14.2 45.65 6.4 75.84 19.89 30.2 13.5 46.19 31.27 57.44 22.02 19.88-16.34-66.77-57.13-133.28-76.04Z"/>
  <path fill="#fff" d="M364.45 603.77c7.3 0-40.03-14.68-60.7-24.68-17.05-8.25-14.81-32.29-26.84-40.54-12.02-8.25-27.38-15.66-23.87-10.83 5.34 7.34 25.66 9.76 31.55 27.73 13 39.76 69.18 48.32 79.86 48.32Z"/>
  <path fill="#09A7CA" fill-opacity=".1" d="M364.45 603.77c7.3 0-40.03-14.68-60.7-24.68-17.05-8.25-14.81-32.29-26.84-40.54-12.02-8.25-27.38-15.66-23.87-10.83 5.34 7.34 25.66 9.76 31.55 27.73 13 39.76 69.18 48.32 79.86 48.32Z"/>
  <path stroke="#fff" stroke-width="1.22" d="M364.45 603.77c7.3 0-40.03-14.68-60.7-24.68-17.05-8.25-14.81-32.29-26.84-40.54-12.02-8.25-27.38-15.66-23.87-10.83 5.34 7.34 25.66 9.76 31.55 27.73 13 39.76 69.18 48.32 79.86 48.32Z"/>
  <path stroke="#099CCA" stroke-opacity=".15" stroke-width="1.22" d="M364.45 603.77c7.3 0-40.03-14.68-60.7-24.68-17.05-8.25-14.81-32.29-26.84-40.54-12.02-8.25-27.38-15.66-23.87-10.83 5.34 7.34 25.66 9.76 31.55 27.73 13 39.76 69.18 48.32 79.86 48.32Z"/>
  <path fill="#fff" d="M394.46 622.97c-41.14-14.35-44.15-3.86-104.82-34.6-33.38-16.9-88.13-114.07-119.23-117.3-14.54-1.52 32.26 37.14 51.8 52.58 18.05 14.26 21.09 34.9 35.43 48.5 17.45 16.55 43.86 32.86 80.41 46.41 24.41 9.05 25.69 1.48 53.48 10.08 27.8 8.6 45.78 31.43 56.14 25.54 10.36-5.9-7.79-15.37-53.21-31.21Z"/>
  <path fill="#099CCA" fill-opacity=".05" d="M394.46 622.97c-41.14-14.35-44.15-3.86-104.82-34.6-33.38-16.9-88.13-114.07-119.23-117.3-14.54-1.52 32.26 37.14 51.8 52.58 18.05 14.26 21.09 34.9 35.43 48.5 17.45 16.55 43.86 32.86 80.41 46.41 24.41 9.05 25.69 1.48 53.48 10.08 27.8 8.6 45.78 31.43 56.14 25.54 10.36-5.9-7.79-15.37-53.21-31.21Z"/>
  <path stroke="#fff" stroke-width="1.22" d="M394.46 622.97c-41.14-14.35-44.15-3.86-104.82-34.6-33.38-16.9-88.13-114.07-119.23-117.3-14.54-1.52 32.26 37.14 51.8 52.58 18.05 14.26 21.09 34.9 35.43 48.5 17.45 16.55 43.86 32.86 80.41 46.41 24.41 9.05 25.69 1.48 53.48 10.08 27.8 8.6 45.78 31.43 56.14 25.54 10.36-5.9-7.79-15.37-53.21-31.21Z"/>
  <path stroke="#09A7CA" stroke-opacity=".15" stroke-width="1.22" d="M394.46 622.97c-41.14-14.35-44.15-3.86-104.82-34.6-33.38-16.9-88.13-114.07-119.23-117.3-14.54-1.52 32.26 37.14 51.8 52.58 18.05 14.26 21.09 34.9 35.43 48.5 17.45 16.55 43.86 32.86 80.41 46.41 24.41 9.05 25.69 1.48 53.48 10.08 27.8 8.6 45.78 31.43 56.14 25.54 10.36-5.9-7.79-15.37-53.21-31.21Z"/>
  <path fill="#fff" d="M324.27 508.2c-14.15-6.33-12.93-10.6-36.7-18.33-9.3-3.03-30.2-5-31.9-9.72-1.7-4.71 9.52-5.49 17.78-3.07 8.25 2.43 12.03 3.2 20.63 1.3 8.6-1.89 16.56 1.95 29.45 7.33 8.6 3.6 10.3 9.76 19.42 14.38 9.13 4.62 16.62 4.97 16.45 9.5-.3 8.03-19.51 5.61-35.13-1.38Z"/>
  <path stroke="#fff" stroke-width="1.22" d="M324.27 508.2c-14.15-6.33-12.93-10.6-36.7-18.33-9.3-3.03-30.2-5-31.9-9.72-1.7-4.71 9.52-5.49 17.78-3.07 8.25 2.43 12.03 3.2 20.63 1.3 8.6-1.89 16.56 1.95 29.45 7.33 8.6 3.6 10.3 9.76 19.42 14.38 9.13 4.62 16.62 4.97 16.45 9.5-.3 8.03-19.51 5.61-35.13-1.38Z"/>
  <path stroke="#09A7CA" stroke-opacity=".15" stroke-width="1.22" d="M324.27 508.2c-14.15-6.33-12.93-10.6-36.7-18.33-9.3-3.03-30.2-5-31.9-9.72-1.7-4.71 9.52-5.49 17.78-3.07 8.25 2.43 12.03 3.2 20.63 1.3 8.6-1.89 16.56 1.95 29.45 7.33 8.6 3.6 10.3 9.76 19.42 14.38 9.13 4.62 16.62 4.97 16.45 9.5-.3 8.03-19.51 5.61-35.13-1.38Z"/>
  <path fill="#fff" d="M335.61 501.76c-10.66-6.57-8.73-9.2-26.7-17.12-9.9-4.35-42.43 1.38-48.7-5-2.93-2.99 14.45.35 21.54 1.87 6.55 1.4 11.93-1.74 17.67-1.04 6.98.85 15.5 3.75 25.16 9.44 6.45 3.8 4.9 5.5 11.85 10.14 6.94 4.65 15.5 4.45 15.95 7.87.45 3.42-5 1.1-16.77-6.16Z"/>
  <path fill="#2FD0DA" fill-opacity=".1" d="M335.61 501.76c-10.66-6.57-8.73-9.2-26.7-17.12-9.9-4.35-42.43 1.38-48.7-5-2.93-2.99 14.45.35 21.54 1.87 6.55 1.4 11.93-1.74 17.67-1.04 6.98.85 15.5 3.75 25.16 9.44 6.45 3.8 4.9 5.5 11.85 10.14 6.94 4.65 15.5 4.45 15.95 7.87.45 3.42-5 1.1-16.77-6.16Z"/>
  <path stroke="#fff" stroke-width="1.22" d="M335.61 501.76c-10.66-6.57-8.73-9.2-26.7-17.12-9.9-4.35-42.43 1.38-48.7-5-2.93-2.99 14.45.35 21.54 1.87 6.55 1.4 11.93-1.74 17.67-1.04 6.98.85 15.5 3.75 25.16 9.44 6.45 3.8 4.9 5.5 11.85 10.14 6.94 4.65 15.5 4.45 15.95 7.87.45 3.42-5 1.1-16.77-6.16Z"/>
  <path stroke="#096DCA" stroke-opacity=".1" stroke-width="1.22" d="M335.61 501.76c-10.66-6.57-8.73-9.2-26.7-17.12-9.9-4.35-42.43 1.38-48.7-5-2.93-2.99 14.45.35 21.54 1.87 6.55 1.4 11.93-1.74 17.67-1.04 6.98.85 15.5 3.75 25.16 9.44 6.45 3.8 4.9 5.5 11.85 10.14 6.94 4.65 15.5 4.45 15.95 7.87.45 3.42-5 1.1-16.77-6.16Z"/>
  <path fill="#fff" d="m129.27 299.56-15.7-19.4-25.3-3.36-15.14 26.71 16.55 20.11 24.67 3.29 14.92-27.35Z"/>
  <path stroke="#fff" stroke-linecap="round" stroke-width="1.83" d="m129.27 299.56-15.7-19.4-25.3-3.36m41 22.76-14.92 27.35-24.67-3.29m39.6-24.06-24.6-2.88M88.27 276.8l-15.14 26.7 16.55 20.11m-1.42-46.82 16.42 19.88m-15 26.94 15-26.94"/>
  <path stroke="#7DCDDE" stroke-linecap="round" stroke-opacity=".5" stroke-width="1.83" d="m129.27 299.56-15.7-19.4-25.3-3.36m41 22.76-14.92 27.35-24.67-3.29m39.6-24.06-24.6-2.88M88.27 276.8l-15.14 26.7 16.55 20.11m-1.42-46.82 16.42 19.88m-15 26.94 15-26.94"/>
  <path fill="#fff" d="m129.45 299.39-24.81-2.64-15.12 26.85 24.87 3.42 15.06-27.63Z"/>
  <path fill="#81CDD2" fill-opacity=".6" d="m129.45 299.39-24.81-2.64-15.12 26.85 24.87 3.42 15.06-27.63Z"/>
  <path fill="#fff" d="m129.32 299.39-15.68-19.11-25.02-3.38 15.95 19.85 24.75 2.64Z"/>
  <path fill="#1FCBD6" fill-opacity=".2" d="m129.32 299.39-15.68-19.11-25.02-3.38 15.95 19.85 24.75 2.64Z"/>
  <path stroke="#fff" stroke-linecap="round" stroke-width="1.83" d="m129.32 299.39-15.68-19.11-25.02-3.38 15.95 19.85 24.75 2.64Z"/>
  <path stroke="#7DCDDE" stroke-linecap="round" stroke-opacity=".3" stroke-width="1.83" d="m129.32 299.39-15.68-19.11-25.02-3.38 15.95 19.85 24.75 2.64Z"/>
  <path fill="#fff" fill-rule="evenodd" d="M325.85 697.47a44.68 44.68 0 1 0-89.36 0 44.68 44.68 0 0 0 89.36 0Zm-32.04 5.24a13.69 13.69 0 1 1-25.29-10.47 13.69 13.69 0 0 1 25.3 10.47Z" clip-rule="evenodd"/>
  <path fill="#85AEEB" fill-opacity=".1" fill-rule="evenodd" d="M325.85 697.47a44.68 44.68 0 1 0-89.36 0 44.68 44.68 0 0 0 89.36 0Zm-32.04 5.24a13.69 13.69 0 1 1-25.29-10.47 13.69 13.69 0 0 1 25.3 10.47Z" clip-rule="evenodd"/>
  <circle cx="14.21" cy="14.21" r="14.21" fill="#fff" transform="matrix(-1 0 0 1 192.72 0)"/>
  <circle cx="14.21" cy="14.21" r="14.21" fill="#09A7CA" fill-opacity=".2" transform="matrix(-1 0 0 1 192.72 0)"/>
  <circle cx="6.12" cy="6.12" r="6.12" fill="#fff" transform="matrix(-1 0 0 1 219.42 45.62)"/>
  <circle cx="6.12" cy="6.12" r="6.12" fill="#096DCA" fill-opacity=".1" transform="matrix(-1 0 0 1 219.42 45.62)"/>
  <path fill="#fff" d="M270.75 103.38c0-1.15.7-2.18 1.78-2.6a34.57 34.57 0 0 0 20.1-20.1 2.78 2.78 0 0 1 5.2 0 34.57 34.57 0 0 0 20.11 20.1 2.78 2.78 0 0 1 1.77 2.6c0 1.15-.7 2.18-1.77 2.6a34.56 34.56 0 0 0-20.1 20.1 2.78 2.78 0 0 1-2.6 1.78c-1.16 0-2.19-.7-2.6-1.78a34.57 34.57 0 0 0-20.11-20.1 2.78 2.78 0 0 1-1.77-2.6Z"/>
  <path fill="#CAC209" fill-opacity=".1" d="M270.75 103.38c0-1.15.7-2.18 1.78-2.6a34.57 34.57 0 0 0 20.1-20.1 2.78 2.78 0 0 1 5.2 0 34.57 34.57 0 0 0 20.11 20.1 2.78 2.78 0 0 1 1.77 2.6c0 1.15-.7 2.18-1.77 2.6a34.56 34.56 0 0 0-20.1 20.1 2.78 2.78 0 0 1-2.6 1.78c-1.16 0-2.19-.7-2.6-1.78a34.57 34.57 0 0 0-20.11-20.1 2.78 2.78 0 0 1-1.77-2.6Z"/>
  <path fill="#fff" d="m550.46 184.25 5.6 39.68 8.07-33.94 41.09 33.94 41.22-100.7-131.5 38.39 35.51 22.63Z"/>
  <path stroke="#fff" stroke-width="2.44" d="m550.46 184.25 5.6 39.68 8.07-33.94 41.09 33.94 41.22-100.7-131.5 38.39 35.51 22.63Z"/>
  <path stroke="#371580" stroke-opacity=".2" stroke-width="2.44" d="m550.46 184.25 5.6 39.68 8.07-33.94 41.09 33.94 41.22-100.7-131.5 38.39 35.51 22.63Z"/>
  <path fill="#fff" d="m550.46 184.25 81.67-50.06-68.43 55.34-7.9 34.55-5.34-39.83Z"/>
  <path fill="#152680" fill-opacity=".1" d="m550.46 184.25 81.67-50.06-68.43 55.34-7.9 34.55-5.34-39.83Z"/>
  <path stroke="#fff" stroke-linejoin="round" stroke-width="2.44" d="m550.46 184.25 81.67-50.06-68.43 55.34-7.9 34.55-5.34-39.83Z"/>
  <path stroke="#371580" stroke-linejoin="round" stroke-opacity=".3" stroke-width="2.44" d="m550.46 184.25 81.67-50.06-68.43 55.34-7.9 34.55-5.34-39.83Z"/>
  <path fill="#fff" d="m556.06 225.32 7.4-35.08L576 199.4l-19.93 25.91Z"/>
  <path fill="#153480" fill-opacity=".2" d="m556.06 225.32 7.4-35.08L576 199.4l-19.93 25.91Z"/>
  <path stroke="#fff" stroke-width="2.44" d="m556.06 225.32 7.4-35.08L576 199.4l-19.93 25.91Z"/>
  <path stroke="#511580" stroke-opacity=".4" stroke-width="2.44" d="m556.06 225.32 7.4-35.08L576 199.4l-19.93 25.91Z"/>
  <path fill="#fff" d="m332.01 616.66-11.85-4.2v-.88c3.31.9 10.31 2.96 11.76 3.85 1.45.9 3.97 3.87 2 5.44l-18.94 22.63a30014.09 30014.09 0 0 0-53.96 64.04c-1.35 1.7-1.92 1.3-3.99.9-1.65-.3-44.09-11.06-65.1-16.39-.5-.52-1.79-2.09-2.96-4.22a61.46 61.46 0 0 1-2.53-5.21c-4.16-1.93-16.15-6.22-30.87-7.96-18.4-2.18-40.4 6.26-43.66 7.4-3.26 1.15-6.13 2.98-7 .9-.7-1.66 2.95-3.75 4.86-4.58 7.33-2.73 25.94-8.22 41.75-8.4 15.82-.16 32.7 9.44 39.16 14.27a16.6 16.6 0 0 0 3.07 5.26c1.94 2.05 60.43 15.15 62.88 15.99 1.96.67 2.89-.32 3.1-.9 23.95-28.36 72.03-85.32 72.71-86.28.69-.97 0-1.51-.43-1.66Z"/>
  <path fill="#153480" fill-opacity=".2" d="m332.01 616.66-11.85-4.2v-.88c3.31.9 10.31 2.96 11.76 3.85 1.45.9 3.97 3.87 2 5.44l-18.94 22.63a30014.09 30014.09 0 0 0-53.96 64.04c-1.35 1.7-1.92 1.3-3.99.9-1.65-.3-44.09-11.06-65.1-16.39-.5-.52-1.79-2.09-2.96-4.22a61.46 61.46 0 0 1-2.53-5.21c-4.16-1.93-16.15-6.22-30.87-7.96-18.4-2.18-40.4 6.26-43.66 7.4-3.26 1.15-6.13 2.98-7 .9-.7-1.66 2.95-3.75 4.86-4.58 7.33-2.73 25.94-8.22 41.75-8.4 15.82-.16 32.7 9.44 39.16 14.27a16.6 16.6 0 0 0 3.07 5.26c1.94 2.05 60.43 15.15 62.88 15.99 1.96.67 2.89-.32 3.1-.9 23.95-28.36 72.03-85.32 72.71-86.28.69-.97 0-1.51-.43-1.66Z"/>
  <path stroke="#fff" stroke-linecap="round" stroke-linejoin="round" stroke-width="1.22" d="m332.01 616.66-11.85-4.2v-.88c3.31.9 10.31 2.96 11.76 3.85 1.45.9 3.97 3.87 2 5.44l-18.94 22.63a30014.09 30014.09 0 0 0-53.96 64.04c-1.35 1.7-1.92 1.3-3.99.9-1.65-.3-44.09-11.06-65.1-16.39-.5-.52-1.79-2.09-2.96-4.22a61.46 61.46 0 0 1-2.53-5.21c-4.16-1.93-16.15-6.22-30.87-7.96-18.4-2.18-40.4 6.26-43.66 7.4-3.26 1.15-6.13 2.98-7 .9-.7-1.66 2.95-3.75 4.86-4.58 7.33-2.73 25.94-8.22 41.75-8.4 15.82-.16 32.7 9.44 39.16 14.27a16.6 16.6 0 0 0 3.07 5.26c1.94 2.05 60.43 15.15 62.88 15.99 1.96.67 2.89-.32 3.1-.9 23.95-28.36 72.03-85.32 72.71-86.28.69-.97 0-1.51-.43-1.66Z"/>
  <path stroke="#153480" stroke-linecap="round" stroke-linejoin="round" stroke-opacity=".7" stroke-width="1.22" d="m332.01 616.66-11.85-4.2v-.88c3.31.9 10.31 2.96 11.76 3.85 1.45.9 3.97 3.87 2 5.44l-18.94 22.63a30014.09 30014.09 0 0 0-53.96 64.04c-1.35 1.7-1.92 1.3-3.99.9-1.65-.3-44.09-11.06-65.1-16.39-.5-.52-1.79-2.09-2.96-4.22a61.46 61.46 0 0 1-2.53-5.21c-4.16-1.93-16.15-6.22-30.87-7.96-18.4-2.18-40.4 6.26-43.66 7.4-3.26 1.15-6.13 2.98-7 .9-.7-1.66 2.95-3.75 4.86-4.58 7.33-2.73 25.94-8.22 41.75-8.4 15.82-.16 32.7 9.44 39.16 14.27a16.6 16.6 0 0 0 3.07 5.26c1.94 2.05 60.43 15.15 62.88 15.99 1.96.67 2.89-.32 3.1-.9 23.95-28.36 72.03-85.32 72.71-86.28.69-.97 0-1.51-.43-1.66Z"/>
  <path fill="#fff" d="m332.44 615.3-11.46-4.3c-.39.48-1.04 1.56-.53 2.14.5.57 1.66 2.2 2.18 2.95l-67.95 82.72-61-12-4.98-3.78c.84 1.7 2.76 5.39 3.77 6.49 1.27 1.37 5.85 2 7.29 2.45 1.44.45 54.61 13.64 56.66 13.74 2.05.1 2.56.16 3.62-1.05 1.06-1.2 72.26-85.52 73.13-86.84.7-1.07-.2-2.12-.73-2.52Z"/>
  <path fill="#153480" fill-opacity=".5" d="m332.44 615.3-11.46-4.3c-.39.48-1.04 1.56-.53 2.14.5.57 1.66 2.2 2.18 2.95l-67.95 82.72-61-12-4.98-3.78c.84 1.7 2.76 5.39 3.77 6.49 1.27 1.37 5.85 2 7.29 2.45 1.44.45 54.61 13.64 56.66 13.74 2.05.1 2.56.16 3.62-1.05 1.06-1.2 72.26-85.52 73.13-86.84.7-1.07-.2-2.12-.73-2.52Z"/>
  <path fill="#fff" d="m112.15 676.3 11.44-12c5.52-3.2 18.26-1.63 28.36-.68 8.08.76 30.98 11.32 41.42 16.5l-.64 7.31-2.22-3.82c-7.96-4.17-23.12-10.7-36.8-13.2-10.73-1.96-32.44 3.2-41.56 5.9Z"/>
  <path fill="#121E8C" fill-opacity=".2" d="m112.15 676.3 11.44-12c5.52-3.2 18.26-1.63 28.36-.68 8.08.76 30.98 11.32 41.42 16.5l-.64 7.31-2.22-3.82c-7.96-4.17-23.12-10.7-36.8-13.2-10.73-1.96-32.44 3.2-41.56 5.9Z"/>
  <path stroke="#fff" stroke-linecap="round" stroke-linejoin="round" stroke-width="1.22" d="m112.15 676.3 11.44-12c5.52-3.2 18.26-1.63 28.36-.68 8.08.76 30.98 11.32 41.42 16.5l-.64 7.31-2.22-3.82c-7.96-4.17-23.12-10.7-36.8-13.2-10.73-1.96-32.44 3.2-41.56 5.9Z"/>
  <path stroke="#153480" stroke-linecap="round" stroke-linejoin="round" stroke-opacity=".5" stroke-width="1.22" d="m112.15 676.3 11.44-12c5.52-3.2 18.26-1.63 28.36-.68 8.08.76 30.98 11.32 41.42 16.5l-.64 7.31-2.22-3.82c-7.96-4.17-23.12-10.7-36.8-13.2-10.73-1.96-32.44 3.2-41.56 5.9Z"/>
  <path fill="#fff" d="m193.4 687.9-.16-7.5c5.06-1.38 17.86-4.1 28.59-4.04 10.72.05 23.85 5.7 29.07 8.52l4.33 15.57-61.82-12.55Z"/>
  <path fill="#12518C" fill-opacity=".1" d="m193.4 687.9-.16-7.5c5.06-1.38 17.86-4.1 28.59-4.04 10.72.05 23.85 5.7 29.07 8.52l4.33 15.57-61.82-12.55Z"/>
  <path stroke="#fff" stroke-linecap="round" stroke-linejoin="round" stroke-width="1.22" d="m193.4 687.9-.16-7.5c5.06-1.38 17.86-4.1 28.59-4.04 10.72.05 23.85 5.7 29.07 8.52l4.33 15.57-61.82-12.55Z"/>
  <path stroke="#153480" stroke-linecap="round" stroke-linejoin="round" stroke-opacity=".6" stroke-width="1.22" d="m193.4 687.9-.16-7.5c5.06-1.38 17.86-4.1 28.59-4.04 10.72.05 23.85 5.7 29.07 8.52l4.33 15.57-61.82-12.55Z"/>
  <path fill="#fff" d="M320.77 613.86c-.89-1.16-1.4-4.95-1.54-6.7l-67.66 77.34 4.24 15.62 68.06-83.08a25.83 25.83 0 0 1-3.1-3.18Z"/>
  <path fill="#096DCA" fill-opacity=".05" d="M320.77 613.86c-.89-1.16-1.4-4.95-1.54-6.7l-67.66 77.34 4.24 15.62 68.06-83.08a25.83 25.83 0 0 1-3.1-3.18Z"/>
  <path stroke="#fff" stroke-linecap="round" stroke-linejoin="round" stroke-width="1.22" d="M320.77 613.86c-.89-1.16-1.4-4.95-1.54-6.7l-67.66 77.34 4.24 15.62 68.06-83.08a25.83 25.83 0 0 1-3.1-3.18Z"/>
  <path stroke="#153480" stroke-linecap="round" stroke-linejoin="round" stroke-opacity=".6" stroke-width="1.22" d="M320.77 613.86c-.89-1.16-1.4-4.95-1.54-6.7l-67.66 77.34 4.24 15.62 68.06-83.08a25.83 25.83 0 0 1-3.1-3.18Z"/>
  <path fill="#fff" d="M153.15 664.02c12.8 2.5 32.2 12.3 39.96 16.66l54.49-68.3c-.75-6.37-10.3-12.64-18.32-16.26-10.03-4.53-23.34-5.06-33-3.88-7.74.94-12.96-1.44-14.61-2.75-22.1 27.43-65.3 81.25-61.35 77.06 4.94-5.23 16.82-5.64 32.83-2.52Z"/>
  <path fill="#091DCA" fill-opacity=".1" d="M153.15 664.02c12.8 2.5 32.2 12.3 39.96 16.66l54.49-68.3c-.75-6.37-10.3-12.64-18.32-16.26-10.03-4.53-23.34-5.06-33-3.88-7.74.94-12.96-1.44-14.61-2.75-22.1 27.43-65.3 81.25-61.35 77.06 4.94-5.23 16.82-5.64 32.83-2.52Z"/>
  <path stroke="#fff" stroke-linecap="round" stroke-linejoin="round" stroke-width="1.22" d="M153.15 664.02c12.8 2.5 32.2 12.3 39.96 16.66l54.49-68.3c-.75-6.37-10.3-12.64-18.32-16.26-10.03-4.53-23.34-5.06-33-3.88-7.74.94-12.96-1.44-14.61-2.75-22.1 27.43-65.3 81.25-61.35 77.06 4.94-5.23 16.82-5.64 32.83-2.52Z"/>
  <path stroke="#153480" stroke-linecap="round" stroke-linejoin="round" stroke-opacity=".6" stroke-width="1.22" d="M153.15 664.02c12.8 2.5 32.2 12.3 39.96 16.66l54.49-68.3c-.75-6.37-10.3-12.64-18.32-16.26-10.03-4.53-23.34-5.06-33-3.88-7.74.94-12.96-1.44-14.61-2.75-22.1 27.43-65.3 81.25-61.35 77.06 4.94-5.23 16.82-5.64 32.83-2.52Z"/>
  <path fill="#fff" d="M226.88 676.9c-6.88-.85-21.08-.53-33.25 3.72 5.43-3.67 16.45-10.85 27.7-14.74 13.61-4.7 22.33-.35 28.42 2.07l55.78-67.4 16.28 2.53-71.47 82.14c-5.53-2.49-17.96-7.63-23.46-8.31Z"/>
  <path fill="#121E8C" fill-opacity=".2" d="M226.88 676.9c-6.88-.85-21.08-.53-33.25 3.72 5.43-3.67 16.45-10.85 27.7-14.74 13.61-4.7 22.33-.35 28.42 2.07l55.78-67.4 16.28 2.53-71.47 82.14c-5.53-2.49-17.96-7.63-23.46-8.31Z"/>
  <path stroke="#fff" stroke-linecap="round" stroke-linejoin="round" stroke-width="1.22" d="M226.88 676.9c-6.88-.85-21.08-.53-33.25 3.72 5.43-3.67 16.45-10.85 27.7-14.74 13.61-4.7 22.33-.35 28.42 2.07l55.78-67.4 16.28 2.53-71.47 82.14c-5.53-2.49-17.96-7.63-23.46-8.31Z"/>
  <path stroke="#153480" stroke-linecap="round" stroke-linejoin="round" stroke-opacity=".5" stroke-width="1.22" d="M226.88 676.9c-6.88-.85-21.08-.53-33.25 3.72 5.43-3.67 16.45-10.85 27.7-14.74 13.61-4.7 22.33-.35 28.42 2.07l55.78-67.4 16.28 2.53-71.47 82.14c-5.53-2.49-17.96-7.63-23.46-8.31Z"/>
  <path fill="#fff" d="M234.58 663.68c-9.15-1.17-23.9 5.77-41.41 17.36 15.92-20.63 50.42-64.05 55.5-69.27 6.37-6.52 21.97-15.59 35.85-20.83 11.1-4.2 23.86-1.65 28.85.15l-64 76.69c-1.89-.98-7.48-3.16-14.8-4.1Z"/>
  <path stroke="#fff" stroke-linecap="round" stroke-linejoin="round" stroke-width="1.22" d="M234.58 663.68c-9.15-1.17-23.9 5.77-41.41 17.36 15.92-20.63 50.42-64.05 55.5-69.27 6.37-6.52 21.97-15.59 35.85-20.83 11.1-4.2 23.86-1.65 28.85.15l-64 76.69c-1.89-.98-7.48-3.16-14.8-4.1Z"/>
  <path stroke="#153480" stroke-linecap="round" stroke-linejoin="round" stroke-opacity=".6" stroke-width="1.22" d="M234.58 663.68c-9.15-1.17-23.9 5.77-41.41 17.36 15.92-20.63 50.42-64.05 55.5-69.27 6.37-6.52 21.97-15.59 35.85-20.83 11.1-4.2 23.86-1.65 28.85.15l-64 76.69c-1.89-.98-7.48-3.16-14.8-4.1Z"/>
  <path fill="#fff" d="m298.48 597.06-23.29 26.72-.68.4c-2.16-.57-8.36-1.59-15.81-1.06-7.46.53-16.64 4.67-20.3 6.67l15.95-20.44a168.02 168.02 0 0 1 22.03-10.61c10.25-4.05 19-2.8 22.1-1.68Z"/>
  <path fill="#0956CA" fill-opacity=".15" d="m298.48 597.06-23.29 26.72-.68.4c-2.16-.57-8.36-1.59-15.81-1.06-7.46.53-16.64 4.67-20.3 6.67l15.95-20.44a168.02 168.02 0 0 1 22.03-10.61c10.25-4.05 19-2.8 22.1-1.68Z"/>
  <path fill="#fff" d="m272.29 630.42-3 3.6a51.1 51.1 0 0 0-18.52-2.4 70.9 70.9 0 0 0-15.34 3.1l1.51-1.88c2.5-.92 7.34-2.72 14.82-3.77 5.87-.84 16.13.55 20.53 1.35Z"/>
  <path fill="#0956CA" fill-opacity=".15" d="m272.29 630.42-3 3.6a51.1 51.1 0 0 0-18.52-2.4 70.9 70.9 0 0 0-15.34 3.1l1.51-1.88c2.5-.92 7.34-2.72 14.82-3.77 5.87-.84 16.13.55 20.53 1.35Z"/>
  <path fill="#fff" d="m266.29 638-3 3.6a51.06 51.06 0 0 0-18.52-2.39c-6.17.49-10.64.88-14.2 2l1.5-1.87c2.5-.9 6.22-1.63 13.7-2.7 5.87-.82 16.12.56 20.52 1.36Z"/>
  <path fill="#0956CA" fill-opacity=".15" d="m266.29 638-3 3.6a51.06 51.06 0 0 0-18.52-2.39c-6.17.49-10.64.88-14.2 2l1.5-1.87c2.5-.9 6.22-1.63 13.7-2.7 5.87-.82 16.12.56 20.52 1.36Z"/>
  <path fill="#fff" d="m259.74 645.6-3 3.6c-9-3.15-22.7-4.2-32-1.27l1.52-1.87c10-3.66 23.31-2.31 33.48-.47Z"/>
  <path fill="#0956CA" fill-opacity=".15" d="m259.74 645.6-3 3.6c-9-3.15-22.7-4.2-32-1.27l1.52-1.87c10-3.66 23.31-2.31 33.48-.47Z"/>
</svg>
