<svg xmlns="http://www.w3.org/2000/svg" viewBox="0 0 464 296">
  <clipPath id="a">
    <path d="M0 0h464v296H0z"/>
  </clipPath>
  <g fill="none" stroke="#fff" clip-path="url(#a)">
    <path d="M308 3c-11 0-23 7-25 20l-32 182c-3 14-15 23-29 21L39 200c-24-3-38 27-19 43l50 42a359 359 0 0 1 81 11c13 1 24 0 50-3l6-1 43-3h50a1669 1669 0 0 0 141-5l1-2 12-24c3-6 3-9 3-15l3-49-29 10c-13 5-28-1-33-14L329 18c-4-10-12-14-21-15Z" opacity=".1"/>
    <path d="M323 7c-10 1-20 7-22 19l-41 177c-3 13-16 21-30 19L53 187c-24-5-39 25-21 42l62 58 13 1a402 402 0 0 1 44 8c13 1 24 0 50-3l6-1 43-3h50a1669 1669 0 0 0 141-5l1-2 12-24c3-6 3-9 3-15l2-39-21 7c-13 4-27-3-32-16L348 24c-4-12-15-17-25-17Z" opacity=".1"/>
    <path d="M342 12c-10 0-20 6-24 18l-48 170c-4 13-18 21-31 18L67 175c-24-6-41 23-23 41l71 74 12 2a1279 1279 0 0 0 24 4c13 1 24 0 50-3l6-1 43-3h50a1669 1669 0 0 0 141-5l1-2 12-24c3-6 3-9 3-15l1-28-14 3c-13 3-26-5-30-18L365 30c-3-12-13-18-23-18Z" opacity=".1"/>
    <path d="M360 18c-10-1-21 5-25 16l-56 165c-4 13-18 20-32 16L82 164c-24-8-42 20-26 39l79 90 16 3c13 1 24 0 50-3l6-1 43-3h50a1669 1669 0 0 0 141-5l1-2 12-24c3-6 3-9 3-15l1-19-7 1c-14 3-27-6-30-19L382 37c-3-12-12-19-22-19Z" opacity=".2"/>
    <path d="M373 24c-9 1-17 6-21 16l-64 157c-5 13-19 19-32 15L96 153c-23-8-42 19-27 38l81 105h1c13 1 24 0 50-3l6-1 43-3h50a1669 1669 0 0 0 141-5l1-2 12-24c3-6 3-9 3-15l1-10h-2c-13 2-26-7-28-21L399 44c-3-13-14-20-26-20Z" opacity=".2"/>
    <path d="M390 32c-9 0-18 4-22 14l-70 151c-6 12-21 18-33 12l-153-65c-23-10-44 17-30 37l81 115 38-3 6-1 43-3h50a1669 1669 0 0 0 141-5l1-2 12-24c3-6 3-9 3-15v-3c-11 0-21-10-23-22L414 53c-2-14-13-21-24-21Z" opacity=".2"/>
    <path d="M406 40c-9-1-18 3-23 13l-76 143c-6 13-21 17-34 11l-146-71c-22-11-44 14-31 35l78 125 27-3 6-1 43-3h50a1669 1669 0 0 0 141-5l1-2a526 526 0 0 1 15-35c-9-3-16-12-17-22L429 63c-1-14-12-23-23-23Z" opacity=".3"/>
    <path d="M418 49c-8 0-16 4-20 11l-82 137c-7 12-22 16-34 9l-139-77c-21-12-45 12-33 33l74 133 17-2 6-1 43-3h50a1669 1669 0 0 0 141-5l1-2a526 526 0 0 1 14-30c-6-5-10-12-10-20l-3-159c0-16-13-25-25-24Z" opacity=".3"/>
    <path d="M432 58c-7 0-15 3-20 11l-87 129c-8 11-23 14-34 7l-132-82c-21-13-46 9-35 31l68 140 9-1 6-1 43-3h50a1669 1669 0 0 0 141-5l1-2 12-24 1-4c-3-4-4-10-4-15l5-156c1-15-11-25-24-25Z" opacity=".3"/>
    <path d="M446 68c-8 0-15 2-21 10l-91 121c-8 11-24 13-35 6l-124-88c-20-14-46 7-36 30l59 140 2 6h1l6-1 43-3h50a1669 1669 0 0 0 141-5l1-2 12-24 2-5-1-7 4-37 1-17 1-11a883 883 0 0 0 1-64v-4l-2-24V73c-4-3-9-5-14-5Z" opacity=".4"/>
    <path d="M455 79c-6 0-13 3-17 8l-95 114c-9 10-25 12-35 4l-117-92c-19-15-46 5-38 28l51 139c1 4 2 8 1 12h2l43-3h50a1669 1669 0 0 0 141-5l1-2 12-24c3-6 3-9 3-15l3-51 1-11a883 883 0 0 0 1-64v-4l-2-24V79h-5Z" opacity=".4"/>
    <path d="M460 91c-4 1-7 3-11 7l-98 105c-9 10-25 11-35 2l-109-95c-18-16-46 2-39 26l42 138c2 6 1 12-1 18l41-3h50a1669 1669 0 0 0 141-5l1-2 12-24c3-6 3-9 3-15l3-51 1-11a883 883 0 0 0 1-64v-4l-2-22Z" opacity=".4"/>
    <path d="M205 101c-14 1-27 14-23 31l35 136c2 9-1 18-7 24l40-3h50a1669 1669 0 0 0 141-5l1-2 12-24c3-6 3-9 3-15l3-51 1-11a883 883 0 0 0 1-64v-10l-2 1-101 98a25 25 0 0 1-35 0l-101-98c-5-5-12-7-18-7Z" opacity=".5"/>
    <path d="M221 99c-14 0-27 13-24 29l26 135c3 13-6 26-19 29h3l43-3h50a1669 1669 0 0 0 141-5l1-2 12-24c3-6 3-9 3-15l3-51 1-11a883 883 0 0 0 2-56l-96 84c-10 9-26 8-35-2l-93-100c-5-6-12-8-18-8Z" opacity=".5"/>
    <path d="M237 98c-14 0-28 11-25 28l18 132c2 13-7 26-21 28l-54 10c11 1 23 0 46-3l6-1 43-3h50a1669 1669 0 0 0 141-5l1-2 12-24c3-6 3-9 3-15l3-51 1-11 3-37v-1l-89 70c-11 8-26 6-35-4l-86-102c-4-6-11-9-17-9Z" opacity=".6"/>
    <path d="M249 98c-13 1-24 11-23 26l11 129c2 14-8 26-22 28l-89 11h1a1279 1279 0 0 0 24 4c13 1 24 0 50-3l6-1 43-3h50a1669 1669 0 0 0 141-5l1-2 12-24c3-6 3-9 3-15l3-51 1-11 1-21-80 57c-11 7-26 5-35-6l-77-103c-6-8-14-11-21-10Z" opacity=".6"/>
    <path d="M264 98c-12 1-24 10-24 26l5 125c0 14-10 26-24 27l-125 8-8 2a310 310 0 0 1 44 7l19 3c13 1 24 0 50-3l6-1 43-3h50a1669 1669 0 0 0 141-5l1-2 12-24c3-6 3-9 3-15l3-51 1-11v-5l-72 45c-11 7-26 4-34-7l-70-105c-5-7-13-11-21-11Z" opacity=".6"/>
    <path d="M280 100c-13-1-26 8-26 24l-2 122c0 14-11 25-25 25l-122 2c-10 0-17 5-21 13a314 314 0 0 1 48 7l19 3c13 1 24 0 50-3l6-1 43-3h50a1669 1669 0 0 0 141-5l1-2 12-24c3-6 3-9 3-15l3-51v-2l-64 36c-12 6-27 2-34-10l-63-104c-4-8-12-12-19-12Z" opacity=".7"/>
    <path d="M291 102c-12 1-22 9-23 23l-9 118c0 14-12 24-26 24l-118-5c-15 0-25 12-25 24a309 309 0 0 1 42 7l19 3c13 1 24 0 50-3l6-1 43-3h50a1669 1669 0 0 0 141-5l1-2 12-24c3-6 3-9 3-15l2-40-56 28c-13 6-28 1-34-11l-55-105c-5-10-15-14-23-13Z" opacity=".7"/>
    <path d="M305 105c-11 0-22 8-24 21l-14 114c-2 14-14 24-27 23l-115-11c-20-1-32 20-24 36h6a402 402 0 0 1 44 8c13 1 24 0 50-3l6-1 43-3h50a1669 1669 0 0 0 141-5l1-2 12-24c3-6 3-9 3-15l1-28-49 21c-13 5-28 0-33-13l-49-104c-4-10-13-14-22-14Z" opacity=".7"/>
    <path d="M319 109c-11-1-23 6-25 20l-19 109c-3 14-15 23-29 21l-110-16c-24-3-38 28-19 43l6 5 4 1a1279 1279 0 0 0 24 4c13 1 24 0 50-3l6-1 43-3h50a1669 1669 0 0 0 141-5l1-2 12-24c3-6 3-9 3-15l1-18-44 16c-13 5-27-1-32-14l-42-103c-4-10-12-15-21-15Z" opacity=".8"/>
    <path d="M329 113c-10 1-20 7-23 19l-24 105c-3 13-16 21-29 19l-106-21c-24-4-39 25-21 42l19 18 6 1c13 1 24 0 50-3l6-1 43-3h50a1669 1669 0 0 0 141-5l1-2 12-24c3-6 3-9 3-15l1-8-39 12c-13 4-27-3-31-16l-35-102c-4-11-14-17-24-16Z" opacity=".8"/>
    <path d="M342 118c-10 0-20 6-24 18l-28 99c-4 14-18 21-31 18l-100-25c-24-6-41 23-24 41l27 27 39-3 6-1 43-3h50a1669 1669 0 0 0 141-5l1-2 12-24c2-5 3-8 3-13l-33 8c-13 3-27-4-30-18l-29-99c-3-12-13-18-23-18Z" opacity=".8"/>
    <path d="M354 124c-10-1-20 4-24 16l-33 95c-4 13-18 20-31 16l-96-30c-23-7-41 21-25 40l30 34 26-2 6-1 43-3h50a1669 1669 0 0 0 141-5l1-2 12-24 1-4-26 5c-14 3-27-6-30-19l-22-97c-3-12-13-19-23-19Z" opacity=".9"/>
    <path d="M362 130c-9 0-17 5-21 15l-36 89c-5 13-20 19-33 15l-90-33c-23-9-43 18-27 38l31 40 15-1 6-1 43-3h50a1669 1669 0 0 0 141-5l1-2 9-19-18 3c-14 1-27-8-29-21l-17-95c-2-14-14-21-25-20Z" opacity=".9"/>
    <path d="M373 136c-8 0-17 5-22 15l-39 83c-6 13-20 19-33 13l-85-36c-22-10-44 16-29 36l32 46h4l6-1 43-3h50a1669 1669 0 0 0 141-5l1-2 5-11-11 1c-13 1-26-9-27-22l-11-92c-2-14-13-22-25-22Z" opacity=".9"/>
    <path d="M384 144c-9-1-18 3-23 12l-42 79c-6 12-21 17-33 11l-80-39c-22-11-44 14-31 35l31 50h1l43-3h50a1669 1669 0 0 0 141-5l1-2 2-4-5 1c-13 0-25-10-26-24l-6-89c-1-14-12-22-23-22Z"/>
    <path d="M390 151c-7 0-15 4-20 12l-43 73c-7 12-23 16-35 9l-74-41c-21-12-45 12-33 33l30 54 35-2h50a1669 1669 0 0 0 137-4c-11-3-20-13-20-25l-1-85c-1-15-13-24-26-24Z"/>
  </g>
</svg>
