<svg xmlns="http://www.w3.org/2000/svg" xml:space="preserve" stroke-linecap="round" stroke-linejoin="round" stroke-miterlimit="10" clip-rule="evenodd" viewBox="0 0 318 221">
  <clipPath id="a">
    <path d="M0 0h318v221H0z"/>
  </clipPath>
  <g fill="none" stroke="#096dca" stroke-linecap="butt" stroke-linejoin="miter" stroke-width=".5" clip-path="url(#a)" opacity=".2">
    <path d="m-5-22-31 1a286 286 0 0 1 6 44v6l2 22c3 29 6 58 7 88l33-40c9-11 24-12 35-4l116 91c20 16 47-4 39-27L151 20c-5-13 1-27 14-32h1-24A2113 2113 0 0 0-5-22Z" opacity=".1"/>
    <path d="m-5-22-31 1a286 286 0 0 1 6 44v6l2 22c3 24 5 49 6 74L4 97c9-10 24-11 34-2l110 95c18 16 47-2 39-26L145 26c-4-13 3-27 16-31l29-10-12 2h-5c-13 2-22 2-31 1A2113 2113 0 0 0-5-22Z" opacity=".1"/>
    <path d="m-5-22-31 1a286 286 0 0 1 6 44v6l2 22 5 61 18-18c10-9 26-9 35 0l102 99c18 17 47 0 41-24L139 32c-4-13 4-27 17-30l59-17h-18l-19 2h-5c-13 2-22 2-31 1A2113 2113 0 0 0-5-22Z" opacity=".1"/>
    <path d="m-5-22-31 1a286 286 0 0 1 6 44v6a1591 1591 0 0 0 7 71l10-9c11-8 26-8 35 2l94 101c17 19 47 3 43-21L132 37c-3-13 6-26 19-29l94-22h-4a1153 1153 0 0 0-63 1h-5c-13 2-22 2-31 1A2113 2113 0 0 0-5-22Z" opacity=".2"/>
    <path d="m-5-22-31 1a286 286 0 0 1 6 44v6a1591 1591 0 0 0 6 62l4-3c10-8 26-7 34 4l87 103c16 19 47 6 43-19L125 42c-2-13 7-26 21-28L279-9l6-2c-10 1-19 1-27-1l-11-1-1-1h-5a1153 1153 0 0 0-63 1h-5c-13 2-22 2-31 1A2113 2113 0 0 0-5-22Z" opacity=".2"/>
    <path d="m-5-22-31 1a286 286 0 0 1 6 44v6a1591 1591 0 0 0 5 53c11-5 24-2 32 8l79 105c15 20 46 8 44-17L118 47c-1-13 9-25 22-27L271 4c11-1 17-7 20-15h-2c-13 1-22 1-31-1l-11-1-1-1h-5a1153 1153 0 0 0-63 1h-5c-13 2-22 2-31 1A2113 2113 0 0 0-5-22Z" opacity=".2"/>
    <path d="m-5-22-31 1a286 286 0 0 1 6 44v6l2 22 3 26c9-2 19 2 24 11l72 106c14 21 46 10 45-14l-5-129c0-13 10-25 24-26l128-9c16-1 25-14 23-27-11 1-19 1-28-1l-11-1-1-1h-5a1153 1153 0 0 0-63 1h-5c-13 2-22 2-31 1A2113 2113 0 0 0-5-22Z" opacity=".3"/>
    <path d="m-5-22-31 1a286 286 0 0 1 6 44v6l2 22 2 22c8 1 14 5 18 12l64 108c13 21 46 12 46-13l2-125c0-14 11-25 25-25l125-2c21 0 31-23 20-39l-16-1-11-1-1-1h-5a1153 1153 0 0 0-63 1h-5c-13 2-22 2-31 1A2113 2113 0 0 0-5-22Z" opacity=".3"/>
    <path d="m-5-22-31 1a286 286 0 0 1 6 44v6l2 22 2 20c5 3 9 6 11 11l57 108c11 22 45 15 46-10l9-122c1-13 12-24 26-23l122 4c24 1 35-31 14-45l-10-7h-2l-1-1h-5a1153 1153 0 0 0-63 1h-5c-13 2-22 2-31 1A2113 2113 0 0 0-5-22Z" opacity=".3"/>
    <path d="m-5-22-31 1a286 286 0 0 1 6 44v6l2 22 2 22 4 6 50 108c10 22 44 17 47-8L89 61c2-13 14-23 27-22l119 11c24 2 36-30 17-45l-26-20h-29l-19 2h-5c-13 2-22 2-31 1A2113 2113 0 0 0-5-22Z" opacity=".4"/>
    <path d="m-5-22-31 1a286 286 0 0 1 6 44v6a1591 1591 0 0 0 6 56l39 97c9 23 42 20 47-5L82 64c2-14 14-23 28-21l114 16c25 4 39-27 20-43l-37-31h-10l-19 2h-5c-13 2-22 2-31 1A2113 2113 0 0 0-5-22Z" opacity=".4"/>
    <path d="m-5-22-31 1a286 286 0 0 1 6 44v6a1591 1591 0 0 0 7 75l25 73c8 24 41 22 47-2L74 65c3-13 16-21 29-19l111 22c24 5 39-25 21-42l-43-41-14 2h-5c-13 2-22 2-31 1A2113 2113 0 0 0-5-22Z" opacity=".4"/>
    <path d="m-5-22-31 1a286 286 0 0 1 6 44v6l2 22 7 84 10 37c7 24 41 24 48 0L66 67c4-13 18-21 31-17l106 26c24 6 41-23 23-41l-47-49-1 1h-5c-13 2-22 2-31 1A2113 2113 0 0 0-5-22Z" opacity=".5"/>
    <path d="m-5-22-31 1a286 286 0 0 1 6 44v6l2 22c5 40 7 80 8 122 10 17 37 17 45-5L59 68c4-13 18-20 31-16l101 31c24 8 42-21 26-39l-48-57c-11 1-19 2-27 1A2113 2113 0 0 0-5-22Z" opacity=".5"/>
    <path d="m-5-22-31 1a286 286 0 0 1 6 44v6l2 22c5 41 7 82 8 126 12 5 28 2 33-13l38-95c5-13 20-19 32-15l97 36c23 8 43-19 28-39l-49-63h-17A2113 2113 0 0 0-5-22Z" opacity=".6"/>
    <path d="m-5-22-31 1a286 286 0 0 1 6 44v6l2 22c5 40 7 80 8 122 9 1 18-4 22-14l42-90c6-12 20-18 33-13l91 39c23 10 44-16 30-37l-49-70h-7A2113 2113 0 0 0-5-22Z" opacity=".6"/>
    <path d="m-5-22-31 1a286 286 0 0 1 6 44v6l2 22c4 37 7 75 8 114 5-2 9-6 11-11l45-85c7-12 22-17 34-11l86 42c22 11 45-14 32-35l-48-77A2127 2127 0 0 0-5-22Z" opacity=".6"/>
    <path d="m-5-22-31 1a286 286 0 0 1 6 44v6l2 22c4 33 6 66 7 100l2-3 48-80c7-12 22-16 34-9l81 45c22 12 46-12 34-33l-45-82v-2A2216 2216 0 0 0-5-22Z" opacity=".7"/>
    <path d="m-5-22-31 1a286 286 0 0 1 6 44v6l2 22 7 81 43-65c8-11 23-15 34-7l76 47c21 13 46-9 36-31L128-5l-2-9A2317 2317 0 0 0-5-22Z" opacity=".7"/>
    <path d="m-5-22-31 1a286 286 0 0 1 6 44v6l2 22c3 21 4 43 6 65l37-51c8-10 24-13 35-5l70 50c21 14 47-7 37-30L123 0c-1-5-2-9-1-14A2383 2383 0 0 0-5-22Z" opacity=".7"/>
    <path d="m-5-22-31 1a286 286 0 0 1 6 44v6a1591 1591 0 0 0 7 73L8 64c9-11 24-12 35-4l66 51c19 16 47-4 38-27L118 5c-2-6-1-13 2-19A2426 2426 0 0 0-5-22Z" opacity=".8"/>
    <path d="m-5-22-31 1a286 286 0 0 1 6 44v6a1591 1591 0 0 0 6 60L2 61c9-9 24-10 35-1l60 52c19 17 47-2 40-26l-24-76c-2-9 0-18 6-24A2446 2446 0 0 0-5-22Z" opacity=".8"/>
    <path d="m-5-22-31 1a286 286 0 0 1 6 44v6l2 22 3 28 20-20c10-9 26-9 35 0l56 53c17 18 47 1 41-23l-19-75c-2-11 3-23 13-28A2407 2407 0 0 0-5-22Z" opacity=".8"/>
    <path d="m-5-22-31 1a286 286 0 0 1 6 44v6l2 22 2 19 15-14c10-9 26-8 35 2l50 54c17 18 47 3 42-22l-14-72c-2-13 6-26 19-29l9-2A2248 2248 0 0 0-5-22Z" opacity=".9"/>
    <path d="m-5-22-31 1a286 286 0 0 1 6 44v6l2 22 1 10 10-8c11-8 26-7 35 4l45 54c16 19 47 5 44-20L97 22c-2-14 7-26 20-29l28-5h-3A2113 2113 0 0 0-5-22Z" opacity=".9"/>
    <path d="m-5-22-31 1a286 286 0 0 1 6 44v6l2 22 1 3 5-4c11-8 26-6 34 5l41 54c14 20 46 7 44-17l-6-67c-1-14 8-26 22-27l67-9c5 0 8-2 11-4l-13 2h-5c-13 2-22 2-31 1A2113 2113 0 0 0-5-22Z" opacity=".9"/>
    <path d="m-5-22-31 1a286 286 0 0 1 6 44v6l2 17c12-7 27-4 34 7l36 53c14 21 46 10 45-15l-2-63C84 14 95 2 108 2l64-5c9-1 16-6 20-12l-14 2h-5c-13 2-22 2-31 1A2113 2113 0 0 0-5-22Z" opacity="1"/>
    <path d="m-5-22-31 1a286 286 0 0 1 6 44v6l1 11c11-4 24 0 30 11l31 52c13 21 46 12 46-12l1-61c0-14 11-25 25-25l60-1c13 0 22-9 24-19l-10 2h-5c-13 2-22 2-31 1A2113 2113 0 0 0-5-22Z" opacity="1"/>
  </g>
</svg>
